# xmcd
#
# Track frame offsets: 
#        150
#        12562
#        25845
#        40647
#        55917
#        70680
#        83037
#        95620
#        111935
#        127687
#        142550
#        155807
#        169212
#        182585
#        196040
#        207627
#        221620
#        237042
#        250530
#        264320
#        278610
#        291595
#        304092
#        318350
#        333552
#        347435
#
# Disc length: 4795 seconds
#
# Revision: 1
# Processed by: cddbd v1.5.2PL0 Copyright (c) Steve Scherf et al.
# Submitted via: ExactAudioCopy v1.1
#
DISCID=6b12b91a
DTITLE=The Carter Family - In The Shadow Of Clinch Mountain  -  CD2
DYEAR=2000
DGENRE=Country
TTITLE0=Don't Forget This Song (My Home In Old Virginia)  (1929)
TTITLE1=Foggy Mountain Top  (1929)
TTITLE2=Bring Back My Blue Eyed Boy To Me  (1929)
TTITLE3=Diamonds In The Rough  (1929)
TTITLE4=Engine 143  (1929)
TTITLE5=Homestead On The Farm  (1929)
TTITLE6=Cyclone Of Rye Cove  (1929)
TTITLE7=Motherless Children  (1929)
TTITLE8=When The Roses Bloom In Dixieland  (1929)
TTITLE9=No Telephone In Heaven  (1929)
TTITLE10=Western Hobo  (1929)
TTITLE11=Carter's Blues  (1929)
TTITLE12=Wabash Cannonball  (1929)
TTITLE13=A Distant Land To Roam  (1929)
TTITLE14=Jimmie Brown The Newsboy  (1929)
TTITLE15=Kitty Waltz  (1929)
TTITLE16=Fond Affection  (1929)
TTITLE17=The Cannon Ball  (1930)
TTITLE18=Lover's Farewell  (1930)
TTITLE19=There's Someone Waiting For Me  (1930)
TTITLE20=The Little Log Hut In The Lane  (1930)
TTITLE21=When The Springtime Comes Again  (1930)
TTITLE22=When The World's On Fire  (1930)
TTITLE23=I Have An Aged Mother  (1930)
TTITLE24=(1930)
TTITLE25=Worried Man Blues  (1930)
EXTD=Bear Family CD 15865 LK
EXTT0=15-FEB-1929, Camden
EXTT1=15-FEB-1929, Camden
EXTT2=15-FEB-1929, Camden
EXTT3=15-FEB-1929, Camden
EXTT4=15-FEB-1929, Camden
EXTT5=22-NOV-1929, Atlanta
EXTT6=22-NOV-1929, Atlanta
EXTT7=22-NOV-1929, Atlanta
EXTT8=24-NOV-1929, Atlanta
EXTT9=24-NOV-1929, Atlanta
EXTT10=24-NOV-1929, Atlanta
EXTT11=24-NOV-1929, Atlanta
EXTT12=24-NOV-1929, Atlanta
EXTT13=25-NOV-1929, Atlanta
EXTT14=25-NOV-1929, Atlanta
EXTT15=25-NOV-1929, Atlanta
EXTT16=25-NOV-1929, Atlanta
EXTT17=24-MAY-1930, Memphis
EXTT18=24-MAY-1930, Memphis
EXTT19=24-MAY-1930, Memphis
EXTT20=24-MAY-1930, Memphis
EXTT21=24-MAY-1930, Memphis
EXTT22=24-MAY-1930, Memphis
EXTT23=24-MAY-1930, Memphis
EXTT24=24-MAY-1930, Memphis
EXTT25=24-MAY-1930, Memphis
PLAYORDER=
